<svg id="Capa_1" enable-background="new 0 0 512 512" height="512" viewBox="0 0 512 512" width="512" xmlns="http://www.w3.org/2000/svg"><g><path d="m241 60v-30h-211v452h211v-30h-181v-392z" fill="#5a7ba0"/><path d="m271 30v30h181v392h-181v30h211v-452z" fill="#435d7a"/><path d="m422 0h90v90h-90z" fill="#bfebff"/><path d="m0 0h90v90h-90z" fill="#dff5ff"/><path d="m422 211h90v90h-90z" fill="#bfebff"/><path d="m0 211h90v90h-90z" fill="#dff5ff"/><path d="m422 422h90v90h-90z" fill="#bfebff"/><path d="m0 422h90v90h-90z" fill="#dff5ff"/><path d="m301 512v-90h-45l-30 45 30 45z" fill="#bfebff"/><path d="m301 0h-45l-30 47.133 30 42.867h45z" fill="#bfebff"/><path d="m271 301v-30h30v-30h-30v-30h-15l-20 45 20 45z" fill="#435d7a"/><path d="m211 0h45v90h-45z" fill="#dff5ff"/><path d="m211 422h45v90h-45z" fill="#dff5ff"/><path d="m241 241h-30v30h30v30h15v-90h-15z" fill="#5a7ba0"/></g></svg>